<?xml version="1.0" encoding="utf-8"?>
<!-- Generator: Adobe Illustrator 22.1.0, SVG Export Plug-In . SVG Version: 6.00 Build 0)  -->
<svg version="1.1" id="Layer_1" xmlns="http://www.w3.org/2000/svg" xmlns:xlink="http://www.w3.org/1999/xlink" x="0px" y="0px"
	 viewBox="0 0 100 125" style="enable-background:new 0 0 100 125;" xml:space="preserve">
<style type="text/css">
	.st0{fill:#66BFFF;}
</style>
<title>Artboard 1</title>
<path class="st0" d="M47.6,104c0-1.9,1.6-3.5,3.5-3.5l0,0c1.9,0,3.5,1.6,3.5,3.5v14c0,1.9-1.6,3.5-3.5,3.5l0,0
	c-1.9,0-3.5-1.6-3.5-3.5V104z M29.6,78.3c-1,9.7,6,18.4,15.8,19.5c1.3,0.2,2.6,0.2,3.8,0c1-9.7-6-18.4-15.8-19.5
	C32.2,78.2,30.9,78.2,29.6,78.3z M57.8,83.4c-3.8,3.8-5.7,9.1-5.1,14.4c9.8,1,18.6-6,19.6-15.6c0.2-1.3,0.2-2.6,0-3.8
	C67,77.8,61.7,79.6,57.8,83.4z M29.6,60.3c-1,9.7,6,18.3,15.8,19.5c1.3,0.2,2.6,0.2,3.8,0c1-9.7-6-18.4-15.8-19.5
	C32.2,60.2,30.9,60.2,29.6,60.3z M57.8,65.4c-3.8,3.8-5.7,9.1-5.1,14.4c9.8,1,18.6-6,19.6-15.6c0.2-1.3,0.2-2.6,0-3.8
	C67,59.7,61.7,61.6,57.8,65.4z M29.6,42.3c-1,9.7,6,18.4,15.8,19.5c1.3,0.2,2.6,0.2,3.8,0c1-9.7-6-18.4-15.8-19.5
	C32.2,42.1,30.9,42.1,29.6,42.3z M57.8,47.3c-3.8,3.8-5.7,9.1-5.1,14.4c9.8,1,18.6-6,19.6-15.6c0.2-1.3,0.2-2.6,0-3.8
	C67,41.7,61.7,43.6,57.8,47.3z M29.6,24.2c-1,9.7,6,18.4,15.8,19.5c1.3,0.2,2.6,0.2,3.8,0c1-9.7-6-18.4-15.8-19.5
	C32.2,24.1,30.9,24.1,29.6,24.2z M57.8,29.4c-3.8,3.8-5.7,9.1-5.1,14.4c9.8,1,18.6-6,19.6-15.6c0.2-1.3,0.2-2.6,0-3.8
	C67,23.7,61.7,25.5,57.8,29.4z M51,4.5c-7.7,6.1-8.9,17.2-2.7,24.8c0.8,1,1.7,2,2.7,2.7c7.7-6.1,8.9-17.2,2.7-24.8
	C52.9,6.2,52,5.3,51,4.5z"/>
</svg>
