<?xml version="1.0" encoding="utf-8"?>
<!-- Generator: Adobe Illustrator 22.1.0, SVG Export Plug-In . SVG Version: 6.00 Build 0)  -->
<svg version="1.1" id="Layer_1" xmlns="http://www.w3.org/2000/svg" xmlns:xlink="http://www.w3.org/1999/xlink" x="0px" y="0px"
	 viewBox="0 0 100 125" style="enable-background:new 0 0 100 125;" xml:space="preserve">
<style type="text/css">
	.st0{fill:#FF9C66;}
</style>
<title>Artboard 1</title>
<path class="st0" d="M46.5,107.4c0-1.9,1.6-3.5,3.5-3.5l0,0c1.9,0,3.5,1.6,3.5,3.5v14.1c0,1.9-1.6,3.5-3.5,3.5l0,0
	c-1.9,0-3.5-1.6-3.5-3.5V107.4z M27.2,79.3c-1.1,10.4,6.4,19.8,16.8,20.9c1.4,0.2,2.8,0.2,4.1,0c1.1-10.4-6.4-19.8-16.8-20.9
	C30,79.2,28.6,79.2,27.2,79.3z M57.3,84.8c-4.1,4.1-6.1,9.8-5.4,15.5c10.4,1.1,19.8-6.4,20.9-16.8c0.2-1.4,0.2-2.8,0-4.1
	C67.1,78.7,61.4,80.7,57.3,84.8z M27.2,60C26.1,70.4,33.6,79.7,44,80.9c1.4,0.2,2.8,0.2,4.1,0c1.1-10.4-6.4-19.8-16.8-20.9
	C30,59.8,28.6,59.8,27.2,60z M57.3,65.4c-4.1,4.1-6.1,9.8-5.4,15.5c10.4,1.1,19.8-6.4,20.9-16.8c0.2-1.4,0.2-2.8,0-4.1
	C67.1,59.3,61.4,61.3,57.3,65.4z M27.2,40.6C26.1,51,33.6,60.4,44,61.5c1.4,0.2,2.8,0.2,4.1,0c1.1-10.4-6.4-19.8-16.8-20.9
	C30,40.4,28.6,40.4,27.2,40.6z M57.3,46c-4.1,4.1-6.1,9.8-5.4,15.5c10.4,1.1,19.8-6.4,20.9-16.8c0.2-1.4,0.2-2.8,0-4.1
	C67.1,40,61.4,42,57.3,46z M27.2,21.2C26.1,31.6,33.6,41,44,42.1c1.4,0.2,2.8,0.2,4.1,0c1.1-10.4-6.4-19.8-16.8-20.9
	C30,21.1,28.6,21.1,27.2,21.2z M57.3,26.7c-4.1,4.1-6.1,9.8-5.4,15.5c10.4,1.1,19.8-6.4,20.9-16.8c0.2-1.4,0.2-2.8,0-4.1
	C67.1,20.6,61.4,22.6,57.3,26.7z M50,0c-8.2,6.5-9.5,18.5-2.9,26.6c0.9,1.1,1.8,2.1,2.9,2.9c8.2-6.5,9.5-18.5,2.9-26.6
	C52.1,1.8,51.1,0.9,50,0z"/>
</svg>
