<svg id="Layer_1" data-name="Layer 1" xmlns="http://www.w3.org/2000/svg" viewBox="0 0 100 125"><defs><style>.cls-1{fill:wheat;}</style></defs><title>Artboard 1</title><path class="cls-1" d="M48,76a2,2,0,0,1,2-2h0a2,2,0,0,1,2,2v8a2,2,0,0,1-2,2h0a2,2,0,0,1-2-2ZM37.06,60.06A10.77,10.77,0,0,0,48.94,71.94,10.77,10.77,0,0,0,37.06,60.06Zm17.09,3.09a10.76,10.76,0,0,0-3.09,8.79A10.77,10.77,0,0,0,62.94,60.06,10.76,10.76,0,0,0,54.15,63.15ZM37.06,49.06A10.77,10.77,0,0,0,48.94,60.94,10.77,10.77,0,0,0,37.06,49.06Zm17.09,3.09a10.76,10.76,0,0,0-3.09,8.79A10.77,10.77,0,0,0,62.94,49.06,10.76,10.76,0,0,0,54.15,52.15ZM37.06,38.06A10.77,10.77,0,0,0,48.94,49.94,10.77,10.77,0,0,0,37.06,38.06Zm17.09,3.09a10.76,10.76,0,0,0-3.09,8.79A10.77,10.77,0,0,0,62.94,38.06,10.76,10.76,0,0,0,54.15,41.15ZM37.06,27.06A10.77,10.77,0,0,0,48.94,38.94,10.77,10.77,0,0,0,37.06,27.06Zm17.09,3.09a10.76,10.76,0,0,0-3.09,8.79A10.77,10.77,0,0,0,62.94,27.06,10.8,10.8,0,0,0,54.15,30.15ZM50,15a10.76,10.76,0,0,0,0,16.79A10.76,10.76,0,0,0,50,15Z"/></svg>