<?xml version="1.0" encoding="utf-8"?>
<!-- Generator: Adobe Illustrator 22.1.0, SVG Export Plug-In . SVG Version: 6.00 Build 0)  -->
<svg version="1.1" id="Layer_1" xmlns="http://www.w3.org/2000/svg" xmlns:xlink="http://www.w3.org/1999/xlink" x="0px" y="0px"
	 viewBox="0 0 100 125" style="enable-background:new 0 0 100 125;" xml:space="preserve">
<style type="text/css">
	.st0{fill:#2D87FC;}
</style>
<title>Artboard 1</title>
<path class="st0" d="M47.7,105c0-1.8,1.5-3.3,3.3-3.3l0,0c1.8,0,3.3,1.5,3.3,3.3v13.2c0,1.8-1.5,3.3-3.3,3.3l0,0
	c-1.8,0-3.3-1.5-3.3-3.3V105z M29.6,78.7c-1,9.7,6,18.5,15.8,19.6c1.3,0.2,2.6,0.2,3.8,0c1-9.7-6-18.5-15.8-19.6
	C32.2,78.6,30.9,78.6,29.6,78.7z M57.8,83.9c-3.8,3.8-5.7,9.2-5.1,14.5c9.8,1,18.6-6,19.6-15.7c0.2-1.3,0.2-2.6,0-3.8
	C67,78.2,61.7,80,57.8,83.9z M29.6,60.7c-1,9.7,6,18.4,15.8,19.6c1.3,0.2,2.6,0.2,3.8,0c1-9.7-6-18.5-15.8-19.6
	C32.2,60.5,30.9,60.5,29.6,60.7z M57.8,65.7c-3.8,3.8-5.7,9.2-5.1,14.5c9.8,1,18.6-6,19.6-15.7c0.2-1.3,0.2-2.6,0-3.8
	C67,60,61.7,61.9,57.8,65.7z M29.6,42.5c-1,9.7,6,18.5,15.8,19.6c1.3,0.2,2.6,0.2,3.8,0c1-9.7-6-18.5-15.8-19.6
	C32.2,42.3,30.9,42.3,29.6,42.5z M57.8,47.6c-3.8,3.8-5.7,9.2-5.1,14.5c9.8,1,18.6-6,19.6-15.7c0.2-1.3,0.2-2.6,0-3.8
	C67,41.9,61.7,43.8,57.8,47.6z M29.6,24.3c-1,9.7,6,18.5,15.8,19.6c1.3,0.2,2.6,0.2,3.8,0c1-9.7-6-18.5-15.8-19.6
	C32.2,24.2,30.9,24.2,29.6,24.3z M57.8,29.5c-3.8,3.8-5.7,9.2-5.1,14.5c9.8,1,18.6-6,19.6-15.7c0.2-1.3,0.2-2.6,0-3.8
	C67,23.8,61.7,25.7,57.8,29.5z M51,4.5c-7.7,6.1-8.9,17.3-2.7,24.9c0.8,1,1.7,2,2.7,2.7c7.7-6.1,8.9-17.3,2.7-24.9
	C52.9,6.2,52,5.3,51,4.5z"/>
</svg>
